<svg xmlns="http://www.w3.org/2000/svg" width="24" height="24" fill="none" viewBox="0 0 24 24" id="source"><path fill="#000" fill-rule="evenodd" d="M5 5C5 3.34315 6.34315 2 8 2C9.65685 2 11 3.34315 11 5C11 6.30622 10.1652 7.41746 9 7.82929L9 13.2951L14.1843 12.323C14.6573 12.2343 15 11.8213 15 11.3401V10.8293C13.8348 10.4175 13 9.30622 13 8C13 6.34315 14.3431 5 16 5C17.6569 5 19 6.34315 19 8C19 9.30622 18.1652 10.4175 17 10.8293V11.3401C17 12.7838 15.9718 14.0227 14.5529 14.2888L9 15.3299V16.1707C10.1652 16.5825 11 17.6938 11 19C11 20.6569 9.65685 22 8 22C6.34315 22 5 20.6569 5 19C5 17.6938 5.83481 16.5825 7 16.1707L7 7.82929C5.83481 7.41746 5 6.30622 5 5ZM8 4C7.44772 4 7 4.44772 7 5C7 5.55228 7.44772 6 8 6C8.55228 6 9 5.55228 9 5C9 4.44772 8.55228 4 8 4ZM8 18C7.44772 18 7 18.4477 7 19C7 19.5523 7.44772 20 8 20C8.55228 20 9 19.5523 9 19C9 18.4477 8.55228 18 8 18ZM15 8C15 7.44772 15.4477 7 16 7C16.5523 7 17 7.44772 17 8C17 8.55228 16.5523 9 16 9C15.4477 9 15 8.55228 15 8Z" clip-rule="evenodd"></path></svg>